<svg xmlns:rdf="http://www.w3.org/1999/02/22-rdf-syntax-ns#" xmlns="http://www.w3.org/2000/svg" height="262.28" width="427.77" version="1.1" xmlns:cc="http://creativecommons.org/ns#" xmlns:dc="http://purl.org/dc/elements/1.1/" viewBox="0 0 427.77076 262.27518">
<g transform="translate(-117.54 -372.65)">
<path d="m118.42 394.32 20.948-21.177 383.57-0.48579 22.383 20.327-0.0905 220.31-19.912 21.636-386.33-0.39192-21.438-24.328z" fill-rule="evenodd" fill="#f8d61c"/>
<g fill="#1d60af">
<path d="m261.14 396.05-2.2508 20.128-14.646 1.6003-11.243 99.35c-1.4951 13.212-6.8602 23.209-16.148 29.983-9.2201 6.7186-20.236 9.3233-33.049 7.8139-13.911-1.6387-25.257-5.7675-31.873-14.32-6.2838-8.1226-9.7492-15.443-8.5717-29.491l0.24604-0.5421 25.649-1.5443c-0.80523 7.2023 1.9059 14.035 4.8905 17.749 3.2199 3.142 6.0039 4.8085 11.678 5.477 4.9421 0.58218 8.4471-0.63296 13.148-3.5445 3.2494-2.6878 6.6632-8.1422 7.3985-14.719l11.309-101.15c0.85043-7.2042 1.4486-12.276 2.1266-19.499z"/>
<path d="m307.64 509.02c-0.57843-1.6785-0.80729-2.8082-1.0858-4.4535-0.27855-1.6123-0.579-3.3133-0.85698-4.9255-2.891 3.3357-6.4213 6.0321-10.591 8.0891-4.1141 2.057-8.8397 3.0855-14.177 3.0855-8.8397 0-15.872-2.3906-21.098-7.1718-5.1704-4.8368-7.7556-11.397-7.7556-19.681 0-8.4505 3.3913-14.983 10.174-19.597 6.7826-4.6144 16.734-6.9216 29.855-6.9216h12.426v-8.8397c0-4.3364-1.2509-7.7-3.7527-10.091-2.5018-2.3906-6.1989-3.5859-11.091-3.5859-2.7798 0-5.2538 0.33357-7.422 1.0007-2.1682 0.61155-3.9195 1.3621-5.2538 2.2516l-1.5845 9.6736h-18.346l0.0834-20.014c4.4476-3.0022 9.5346-5.5317 15.261-7.5888 5.7819-2.057 12.064-3.0856 18.847-3.0856 11.175 0 20.237 2.752 27.186 8.2559 7.005 5.4484 10.508 13.232 10.508 23.35v37.277 3.9195c0.0556 1.2231 0.16679 2.3906 0.33357 3.5025l7.422 0.6345v14.96h-28.991zm-20.082-18.217c3.6693 0 6.5012-0.48434 8.6916-1.2634 2.6381-0.93624 6.6126-2.6861 8.2805-5.0767v-13.76h-12.426c-5.1704 0-9.0898 1.2231-11.758 3.6693-2.6686 2.3906-4.0029 5.2816-4.0029 8.6729 0 3.0578 1.8127 4.6086 3.7585 6.332 2.2614 0.94134 3.9537 1.4257 7.4562 1.4257z"/>
<path d="m379.07 490.38h25.185l1.0007-12.009h18.597v30.689h-74.97v-14.344l42.947-57.041h-22.099l-0.91733 11.925h-18.68v-30.772h72.218v13.927l-43.281 57.625z"/>
<path d="m466.56 490.38h25.185l1.0007-12.009h18.597v30.689h-74.97v-14.344l42.947-57.041h-22.099l-0.91732 11.925h-18.68v-30.772h72.218v13.927l-43.281 57.625z"/>
</g>
<text style="word-spacing:0px;letter-spacing:0px" xml:space="preserve" font-size="33.995px" y="606.43549" x="249.71404" font-family="sans-serif" line-height="125%" fill="#373737"><tspan font-weight="900" font-size="122.38px" y="606.43549" x="249.71404" font-family="Raleway" fill="#373737">CMS</tspan></text>
</g>
</svg>
