<?xml version="1.0" standalone="no"?>
<!DOCTYPE svg PUBLIC "-//W3C//DTD SVG 20010904//EN"
 "http://www.w3.org/TR/2001/REC-SVG-20010904/DTD/svg10.dtd">
<svg version="1.0" xmlns="http://www.w3.org/2000/svg"
 width="725.000000pt" height="725.000000pt" viewBox="0 0 725.000000 725.000000"
 preserveAspectRatio="xMidYMid meet">
<metadata>
Created by potrace 1.11, written by Peter Selinger 2001-2013
</metadata>
<g transform="translate(0.000000,725.000000) scale(0.100000,-0.100000)"
fill="#000000" stroke="none">
<path d="M3719 7155 c-3 -2 -99 -6 -214 -9 -116 -3 -232 -8 -260 -11 -58 -6
-191 -25 -220 -32 -11 -2 -29 -6 -40 -7 -150 -25 -413 -98 -535 -149 -14 -6
-27 -11 -30 -12 -20 -5 -61 -20 -90 -32 -19 -8 -44 -19 -55 -23 -11 -5 -68
-31 -127 -59 -60 -28 -111 -51 -114 -50 -4 0 -10 -3 -13 -8 -3 -4 -26 -19 -51
-32 -38 -20 -133 -76 -199 -116 -270 -166 -610 -465 -821 -724 -19 -23 -39
-48 -45 -55 -61 -71 -177 -237 -258 -371 -169 -275 -331 -669 -411 -995 -9
-35 -55 -269 -62 -310 -23 -152 -29 -245 -28 -495 0 -235 7 -407 19 -500 3
-22 7 -60 10 -85 7 -56 48 -244 82 -370 73 -280 151 -469 332 -815 62 -117
223 -366 265 -407 7 -7 26 -31 42 -53 74 -102 320 -362 454 -480 82 -72 183
-150 295 -228 61 -42 116 -82 122 -87 7 -6 13 -7 13 -3 0 4 4 3 8 -2 8 -12 43
-35 104 -69 24 -13 66 -36 93 -51 28 -15 55 -30 60 -33 6 -4 12 -7 15 -8 3 0
53 -24 112 -52 59 -29 111 -52 114 -52 5 0 26 -8 99 -41 38 -17 220 -77 312
-103 78 -22 125 -33 254 -61 9 -2 34 -6 55 -9 22 -4 65 -11 96 -17 32 -5 77
-12 100 -14 24 -3 75 -8 113 -12 87 -9 506 -9 600 0 125 11 327 42 415 62 14
3 38 8 54 11 63 11 272 70 326 91 8 3 21 7 27 9 17 3 148 52 198 74 22 10 60
26 85 36 83 34 284 139 390 202 109 65 317 210 392 273 24 20 59 50 78 65 19
16 49 43 67 61 17 18 34 33 37 33 11 0 227 225 296 309 19 24 40 48 45 54 57
64 255 348 255 367 0 5 3 10 8 10 4 0 19 21 32 48 14 26 32 58 41 72 58 90
173 343 243 535 38 104 92 278 101 324 2 9 8 34 13 56 6 22 13 51 16 65 2 14
7 36 10 50 3 14 8 36 10 50 3 14 7 34 9 45 3 11 8 45 11 76 4 31 8 65 10 76
28 141 28 788 0 925 -3 20 -9 61 -19 148 -2 14 -4 25 -5 25 -2 0 -5 14 -13 60
-14 72 -19 96 -48 205 -74 283 -200 591 -347 850 -47 82 -184 295 -219 340 -6
8 -32 41 -57 72 -25 32 -46 60 -46 63 0 3 -13 19 -30 35 -16 16 -30 31 -30 34
0 8 -78 93 -180 195 -122 122 -228 219 -305 275 -22 17 -42 32 -45 35 -16 18
-119 91 -128 91 -5 0 -12 4 -14 8 -3 8 -128 96 -138 97 -3 0 -25 14 -50 30
-114 73 -333 183 -507 254 -120 49 -384 134 -455 146 -17 3 -35 8 -39 11 -5 3
-21 7 -36 9 -16 2 -39 7 -53 10 -14 4 -34 8 -45 10 -11 2 -29 6 -40 8 -11 3
-42 8 -68 11 -27 4 -59 9 -70 12 -32 6 -159 15 -263 19 -51 1 -96 5 -101 8 -6
4 -12 5 -14 2z m121 -339 c85 -3 166 -8 180 -10 14 -3 43 -7 65 -10 22 -3 50
-7 61 -10 12 -2 37 -7 55 -10 65 -11 90 -17 203 -46 118 -30 322 -96 391 -126
22 -10 45 -18 50 -20 6 -1 43 -18 83 -37 39 -19 72 -33 72 -30 0 3 6 0 13 -6
8 -6 58 -34 113 -62 54 -29 101 -56 102 -60 2 -5 8 -9 13 -9 6 0 44 -22 86
-50 42 -27 79 -50 84 -50 4 0 9 -4 11 -8 2 -5 26 -23 53 -42 28 -19 55 -39 62
-45 7 -5 18 -14 25 -20 119 -92 300 -262 406 -381 77 -87 89 -102 151 -184 31
-41 59 -77 62 -80 10 -8 103 -150 151 -230 88 -146 160 -292 249 -505 4 -11
22 -63 40 -115 17 -52 34 -102 37 -110 6 -18 9 -29 15 -55 2 -11 7 -27 10 -35
6 -16 38 -155 52 -230 3 -14 7 -34 9 -45 2 -11 7 -42 10 -69 4 -27 9 -52 11
-56 2 -3 4 -37 6 -75 1 -39 6 -80 10 -92 5 -13 4 -25 -1 -28 -6 -4 -7 -14 -2
-23 14 -31 3 -568 -13 -654 -3 -12 -7 -40 -11 -63 -5 -35 -13 -81 -30 -161
-28 -138 -125 -466 -146 -491 -6 -7 -8 -13 -4 -13 4 0 -3 -19 -15 -43 -12 -23
-21 -43 -21 -44 1 -2 -7 -22 -17 -45 -39 -91 -65 -143 -75 -150 -6 -4 -7 -8
-3 -8 5 0 -1 -13 -12 -28 -11 -16 -23 -40 -26 -55 -4 -15 -11 -27 -15 -27 -4
0 -10 -8 -14 -17 -25 -77 -279 -432 -400 -562 -96 -102 -206 -210 -276 -271
-41 -36 -77 -67 -80 -70 -18 -18 -180 -137 -255 -187 -145 -98 -373 -223 -490
-269 -16 -6 -59 -24 -95 -38 -160 -66 -330 -115 -550 -161 -18 -3 -84 -14
-127 -20 -18 -3 -48 -7 -65 -10 -127 -19 -582 -27 -708 -12 -36 5 -81 10 -100
13 -52 6 -122 16 -145 21 -11 2 -31 6 -45 7 -50 7 -287 69 -385 101 -167 55
-435 169 -443 187 -2 5 -7 6 -12 3 -4 -3 -13 2 -20 10 -7 8 -21 15 -31 15 -11
0 -19 4 -19 10 0 5 -11 12 -25 16 -14 3 -25 10 -25 15 0 5 -6 9 -14 9 -12 0
-261 160 -304 195 -10 8 -46 37 -82 65 -194 153 -360 321 -549 555 -35 45 -81
114 -81 123 0 6 -4 12 -8 14 -11 4 -60 77 -120 178 -48 82 -172 323 -172 334
0 4 -9 25 -19 49 -102 226 -193 558 -236 857 -21 149 -22 602 -1 775 12 101
19 148 32 215 8 41 17 86 20 100 13 71 60 238 95 340 21 63 41 120 42 125 2 6
11 28 21 50 10 22 19 45 20 50 3 10 27 65 76 170 13 28 28 53 33 56 5 3 8 9 8
13 -2 10 50 108 65 124 8 7 14 20 14 28 0 8 5 14 10 14 6 0 10 4 10 10 0 14
144 231 185 277 5 6 21 26 35 44 118 156 369 407 534 534 22 17 51 39 65 51
14 11 55 40 91 65 36 24 67 46 70 49 3 3 16 11 30 19 14 8 54 33 90 55 97 59
300 159 430 211 105 42 347 122 395 130 11 2 74 15 141 29 66 14 145 28 175
32 30 3 65 8 79 10 14 3 93 7 175 10 83 4 151 7 152 8 1 1 24 1 50 0 26 -2
118 -5 203 -8z"/>
<path d="M3404 6625 c-54 -22 -66 -59 -49 -145 26 -129 22 -299 -8 -380 -3 -8
-13 -40 -22 -70 -20 -65 -106 -283 -114 -290 -3 -3 -7 -10 -8 -17 -1 -6 -16
-41 -33 -77 -16 -37 -30 -71 -30 -76 0 -6 -4 -10 -10 -10 -5 0 -10 -6 -10 -14
0 -25 -165 -337 -272 -514 -152 -253 -334 -506 -483 -672 -74 -82 -263 -269
-324 -320 -29 -25 -59 -51 -67 -57 -7 -7 -17 -13 -23 -13 -6 0 -11 -4 -11 -8
0 -4 -24 -25 -52 -47 -29 -22 -61 -47 -70 -56 -10 -10 -26 -23 -36 -31 -11 -7
-31 -30 -45 -51 -22 -33 -24 -42 -15 -63 14 -30 42 -38 105 -30 69 8 100 19
199 67 81 39 244 131 269 151 6 5 57 42 114 84 129 95 353 317 454 449 42 55
80 105 85 110 18 22 133 197 207 315 43 69 91 145 107 170 15 25 61 99 101
164 40 66 77 121 83 123 5 2 23 -18 41 -44 59 -90 156 -228 163 -233 4 -3 9
-10 11 -16 4 -10 68 -103 242 -349 48 -68 87 -128 87 -134 0 -5 4 -11 8 -13 4
-1 59 -75 122 -163 98 -139 225 -310 240 -325 3 -3 29 -34 59 -70 126 -151
216 -209 407 -265 70 -21 112 -26 199 -27 106 -1 256 6 340 17 71 8 126 16
148 21 12 3 31 7 42 8 26 5 71 22 112 43 37 20 51 60 32 91 -13 21 -112 82
-133 82 -7 0 -16 3 -20 7 -3 4 -12 8 -19 9 -7 1 -48 16 -92 34 -44 17 -87 33
-95 35 -66 16 -317 140 -435 216 -134 85 -407 287 -445 329 -3 3 -41 36 -85
75 -80 70 -400 385 -465 460 -153 173 -209 238 -297 343 l-61 73 79 176 c113
253 161 344 238 459 38 55 72 111 76 123 19 62 -23 125 -134 200 -189 128
-329 179 -407 146z"/>
<path d="M4966 3652 c-2 -1 -23 -5 -47 -8 -24 -3 -51 -8 -59 -10 -8 -3 -26 -8
-40 -10 -27 -5 -29 -6 -144 -58 -67 -31 -136 -75 -171 -111 -102 -103 -390
-486 -605 -805 -24 -36 -46 -67 -49 -70 -3 -3 -28 -39 -56 -80 -27 -41 -55
-81 -61 -87 -7 -7 -22 -29 -35 -50 -13 -21 -25 -40 -29 -43 -3 -3 -23 -32 -45
-65 -22 -33 -44 -65 -50 -71 -5 -6 -17 -22 -25 -34 -8 -12 -23 -33 -32 -45
-10 -13 -18 -26 -18 -29 0 -3 -7 -14 -15 -23 -8 -10 -21 -26 -28 -37 -12 -16
-18 -9 -72 80 -32 55 -62 101 -67 102 -4 2 -8 8 -8 13 0 6 -27 53 -60 106 -33
52 -60 99 -60 103 0 5 -4 10 -8 12 -4 2 -19 21 -32 43 -13 22 -50 80 -82 128
-32 48 -58 90 -58 92 0 3 -7 13 -14 22 -8 10 -32 41 -53 70 -21 28 -47 64 -58
79 -105 143 -295 335 -455 461 -143 111 -394 257 -514 297 -27 9 -74 18 -104
21 -47 3 -58 0 -79 -21 -22 -22 -23 -25 -9 -51 25 -45 47 -67 162 -158 212
-169 434 -383 544 -525 19 -25 40 -49 46 -55 61 -58 324 -446 437 -645 77
-137 269 -517 272 -540 0 -3 3 -10 7 -15 15 -24 118 -288 143 -366 44 -140 49
-257 18 -439 -11 -65 3 -115 36 -124 86 -26 170 -6 316 76 140 79 231 160 241
215 6 32 -8 84 -31 110 -67 79 -154 234 -245 438 -32 72 -72 160 -88 196 l-30
66 75 89 c103 123 160 189 217 254 202 226 483 501 655 640 23 19 48 40 54 46
65 59 381 274 462 314 28 14 52 28 55 32 5 7 165 81 200 93 3 1 14 5 25 10 96
39 135 53 135 48 0 -3 6 -1 13 4 6 5 35 17 62 27 294 103 266 215 -65 260
-132 17 -465 38 -474 28z"/>
</g>
</svg>
